<?xml version="1.0" encoding="UTF-8" standalone="no"?>
<!-- Created with Inkscape (http://www.inkscape.org/) -->

<svg
   xmlns:dc="http://purl.org/dc/elements/1.1/"
   xmlns:cc="http://creativecommons.org/ns#"
   xmlns:rdf="http://www.w3.org/1999/02/22-rdf-syntax-ns#"
   xmlns:svg="http://www.w3.org/2000/svg"
   xmlns="http://www.w3.org/2000/svg"
   xmlns:sodipodi="http://sodipodi.sourceforge.net/DTD/sodipodi-0.dtd"
   xmlns:inkscape="http://www.inkscape.org/namespaces/inkscape"
   version="1.1"
   id="svg815"
   xml:space="preserve"
   width="793.70074"
   height="1122.5197"
   viewBox="0 0 793.70074 1122.5197"
   sodipodi:docname="InnerRotorPMRotor.svg"
   inkscape:version="0.92.3 (2405546, 2018-03-11)"><metadata
     id="metadata821"><rdf:RDF><cc:Work
         rdf:about=""><dc:format>image/svg+xml</dc:format><dc:type
           rdf:resource="http://purl.org/dc/dcmitype/StillImage" /><dc:title></dc:title></cc:Work></rdf:RDF></metadata><defs
     id="defs819"><marker
       inkscape:stockid="Arrow1Lend"
       orient="auto"
       refY="0.0"
       refX="0.0"
       id="Arrow1Lend"
       style="overflow:visible;"
       inkscape:isstock="true"><path
         id="path1124"
         d="M 0.0,0.0 L 5.0,-5.0 L -12.5,0.0 L 5.0,5.0 L 0.0,0.0 z "
         style="fill-rule:evenodd;stroke:#999999;stroke-width:1pt;stroke-opacity:1;fill:#999999;fill-opacity:1"
         transform="scale(0.8) rotate(180) translate(12.5,0)" /></marker><marker
       inkscape:stockid="Arrow1Lstart"
       orient="auto"
       refY="0.0"
       refX="0.0"
       id="Arrow1Lstart"
       style="overflow:visible"
       inkscape:isstock="true"><path
         id="path1121"
         d="M 0.0,0.0 L 5.0,-5.0 L -12.5,0.0 L 5.0,5.0 L 0.0,0.0 z "
         style="fill-rule:evenodd;stroke:#999999;stroke-width:1pt;stroke-opacity:1;fill:#999999;fill-opacity:1"
         transform="scale(0.8) translate(12.5,0)" /></marker></defs><sodipodi:namedview
     pagecolor="#ffffff"
     bordercolor="#666666"
     borderopacity="1"
     objecttolerance="10"
     gridtolerance="10"
     guidetolerance="10"
     inkscape:pageopacity="0"
     inkscape:pageshadow="2"
     inkscape:window-width="1366"
     inkscape:window-height="715"
     id="namedview817"
     showgrid="false"
     inkscape:snap-global="false"
     inkscape:zoom="1.4160786"
     inkscape:cx="508.28219"
     inkscape:cy="639.05443"
     inkscape:window-x="-8"
     inkscape:window-y="-8"
     inkscape:window-maximized="1"
     inkscape:current-layer="g825" /><g
     id="g823"
     inkscape:groupmode="layer"
     inkscape:label="InnerRotorPMRotor"
     transform="matrix(1.3333333,0,0,1.3333333,0,3.3396326e-5)"><g
       id="g825"><g
         id="g827"
         transform="translate(2.2277083e-6,-2.968962e-6)"><path
           d="M 155.988,350.266 C 187.75,280.688 269.426,243.367 347.836,262.605 426.25,281.84 477.668,351.809 468.613,426.957"
           style="fill:none;stroke:#000000;stroke-width:3.03999996;stroke-linecap:butt;stroke-linejoin:miter;stroke-miterlimit:4;stroke-dasharray:none;stroke-opacity:1"
           id="path829"
           inkscape:connector-curvature="0" /></g><g
         id="g831"
         transform="translate(-2.3615517e-6,2.3615517e-6)"><path
           d="m 75.391,305.16 c 46.781,-97.422 153.605,-153.367 262.761,-137.613 109.157,15.758 194.766,99.476 210.582,205.937"
           style="fill:none;stroke:#000000;stroke-width:3.20000005;stroke-linecap:butt;stroke-linejoin:miter;stroke-miterlimit:4;stroke-dasharray:none;stroke-opacity:1"
           id="path833"
           inkscape:connector-curvature="0" /></g><g
         id="g835"
         transform="translate(-1.4617394e-6,1.4617393e-6)"><path
           d="m 70.828,248.883 c 43.539,-59.445 109.82,-99.629 184.137,-111.637 74.312,-12.004 150.512,5.16 211.68,47.684"
           style="fill:none;stroke:#000000;stroke-width:2.88000011;stroke-linecap:butt;stroke-linejoin:miter;stroke-miterlimit:4;stroke-dasharray:none;stroke-opacity:1"
           id="path837"
           inkscape:connector-curvature="0" /></g><g
         id="g839"
         transform="translate(-1.3056785e-6,1.3056784e-6)"><path
           d="M 136.992,275.605 C 208.465,188.68 336.613,172.344 428.188,238.488"
           style="fill:none;stroke:#000000;stroke-width:2.73200011;stroke-linecap:butt;stroke-linejoin:miter;stroke-miterlimit:4;stroke-dasharray:none;stroke-opacity:1"
           id="path841"
           inkscape:connector-curvature="0" /></g><g
         id="g843"
         transform="matrix(1,-0.502015,0.351298,0.539609,-5.9226039e-6,-2.5766134e-6)"><path
           d="m 37.363,446.603 c -7.77,6.439 -47.365,8.867 -55.676,3.126 -8.313,-5.736 -22.556,-43.296 -20.1,-52.933 2.461,-9.641 34.137,-34.428 44.187,-35.17 10.052,-0.747 43.274,21.561 46.974,30.809 3.697,9.245 -7.613,47.724 -15.385,54.168 z"
           style="fill:#ffffff;fill-opacity:1;fill-rule:nonzero;stroke:#ffffff;stroke-width:0.75320202;stroke-linecap:butt;stroke-linejoin:miter;stroke-miterlimit:4;stroke-dasharray:none;stroke-opacity:1"
           id="path845"
           inkscape:connector-curvature="0" /></g><g
         id="g847"
         transform="matrix(1,-0.309799,0.0963029,0.310856,-4.6893025e-6,-1.1875993e-6)"><path
           d="m 174.044,808.028 c -13.6,2.543 -63.148,-23.326 -69.739,-35.649 -6.59,-12.323 2.672,-66.074 12.404,-76.192 9.736,-10.114 65.568,-20.418 78.007,-14.267 12.44,6.14 35.597,56.99 33.561,70.794 -2.04,13.8 -40.633,52.771 -54.233,55.314 z"
           style="fill:#ffffff;fill-opacity:1;fill-rule:nonzero;stroke:#ffffff;stroke-width:0.55211198;stroke-linecap:butt;stroke-linejoin:miter;stroke-miterlimit:4;stroke-dasharray:none;stroke-opacity:1"
           id="path849"
           inkscape:connector-curvature="0" /></g><g
         id="g851"
         transform="matrix(1,0.186449,-0.175314,0.395834,-1.3173785e-5,4.2262594e-6)"><path
           d="m 459.358,270.96 c -5.944,12.235 -52.535,39.726 -66.16,37.786 -13.621,-1.934 -52.71,-37.669 -55.155,-51.281 -2.446,-13.601 18.969,-64.573 31.032,-71.32 12.067,-6.75 65.67,-0.568 75.992,8.445 10.317,9.006 20.233,64.138 14.291,76.37 z"
           style="fill:#ffffff;fill-opacity:1;fill-rule:nonzero;stroke:#ffffff;stroke-width:0.546408;stroke-linecap:butt;stroke-linejoin:miter;stroke-miterlimit:4;stroke-dasharray:none;stroke-opacity:1"
           id="path853"
           inkscape:connector-curvature="0" /></g><g
         id="g855"
         transform="matrix(0.424132,0.796297,-1,0.264603,-1.1418365e-7,1.6628735e-6)"><path
           d="m 360.708,-269.684 c -1.573,5.383 -18.576,19.453 -24.216,19.846 -5.645,0.395 -24.136,-11.467 -26.215,-16.755 -2.079,-5.288 3.333,-27.008 7.736,-30.543 4.407,-3.534 26.085,-5.011 30.903,-2.046 4.816,2.969 13.365,24.114 11.792,29.498 z"
           style="fill:#ffffff;fill-opacity:1;fill-rule:nonzero;stroke:#ffffff;stroke-width:0.17455301;stroke-linecap:butt;stroke-linejoin:miter;stroke-miterlimit:4;stroke-dasharray:none;stroke-opacity:1"
           id="path857"
           inkscape:connector-curvature="0" /></g><g
         id="g859"
         transform="matrix(1,0,0,0.978946,1.6146658e-8,-3.6279699e-6)"><path
           d="m 447.184,213.435 c -1.293,2.805 -11.911,8.791 -14.954,8.412 -3.042,-0.375 -12.378,-8.292 -12.98,-11.305 -0.602,-3.008 4.527,-13.894 7.164,-15.49 2.637,-1.596 14.586,-0.678 16.875,1.357 2.285,2.035 5.188,14.217 3.895,17.026 z"
           style="fill:#ffffff;fill-opacity:1;fill-rule:nonzero;stroke:#ffffff;stroke-width:0.153998;stroke-linecap:butt;stroke-linejoin:miter;stroke-miterlimit:4;stroke-dasharray:none;stroke-opacity:1"
           id="path861"
           inkscape:connector-curvature="0" /></g><g
         id="g863"
         transform="scale(1,0.89257)"><path
           d="m 137.016,277.04 -15.27,11.116 -15.75,-11.199 5.887,-18.141 19.484,0.114 z"
           style="fill:#ffffff;fill-opacity:1;fill-rule:nonzero;stroke:#ffffff;stroke-width:0.179185;stroke-linecap:butt;stroke-linejoin:miter;stroke-miterlimit:4;stroke-dasharray:none;stroke-opacity:1"
           id="path865"
           inkscape:connector-curvature="0" /></g><g
         id="g867"
         transform="matrix(0.996544,0.881078,-0.877154,1,2.7060001e-6,1.2418e-5)"><path
           d="m 214.808,68.741 41.08,0.001 v 32.878 h -41.08 z"
           style="fill:#ffffff;fill-opacity:1;fill-rule:nonzero;stroke:#ffffff;stroke-width:0.16742;stroke-linecap:butt;stroke-linejoin:miter;stroke-miterlimit:4;stroke-dasharray:none;stroke-opacity:1"
           id="path869"
           inkscape:connector-curvature="0" /></g><g
         id="g871"
         transform="matrix(1,0.784193,-0.786609,0.998101,2.7165e-6,1.25175e-5)"><path
           d="m 373.654,-58.198 21.152,-10e-4 0.001,39.023 -21.152,10e-4 z"
           style="fill:#ffffff;fill-opacity:1;fill-rule:nonzero;stroke:#ffffff;stroke-width:0.16567799;stroke-linecap:butt;stroke-linejoin:miter;stroke-miterlimit:4;stroke-dasharray:none;stroke-opacity:1"
           id="path873"
           inkscape:connector-curvature="0" /></g><g
         id="g875"><path
           d="m 424.289,237.719 h 5.508 v 7.18 h -5.508 z"
           style="fill:#ffffff;fill-opacity:1;fill-rule:nonzero;stroke:#ffffff;stroke-width:0.20257699;stroke-linecap:butt;stroke-linejoin:miter;stroke-miterlimit:4;stroke-dasharray:none;stroke-opacity:1"
           id="path877"
           inkscape:connector-curvature="0" /></g><g
         id="g879"><path
           d="m 394.836,276.57 h 5.551 v 5.555 h -5.551 z"
           style="fill:#ffffff;fill-opacity:1;fill-rule:nonzero;stroke:#ffffff;stroke-width:0.16;stroke-linecap:butt;stroke-linejoin:miter;stroke-miterlimit:4;stroke-dasharray:none;stroke-opacity:1"
           id="path881"
           inkscape:connector-curvature="0" /></g><g
         id="g883"><path
           d="m 86.957,229.926 50.762,44.422"
           style="fill:none;stroke:#000000;stroke-width:3.28640008;stroke-linecap:butt;stroke-linejoin:miter;stroke-miterlimit:4;stroke-dasharray:none;stroke-opacity:1"
           id="path885"
           inkscape:connector-curvature="0" /></g><g
         id="g887"><path
           d="m 426.488,236.59 38.871,-52.203"
           style="fill:none;stroke:#000000;stroke-width:2.55999994;stroke-linecap:butt;stroke-linejoin:miter;stroke-miterlimit:4;stroke-dasharray:none;stroke-opacity:1"
           id="path889"
           inkscape:connector-curvature="0" /></g><g
         id="g891"><path
           d="M 427.32,238.328 300.152,408.109"
           style="fill:none;stroke:#000000;stroke-width:1.55599999;stroke-linecap:butt;stroke-linejoin:miter;stroke-miterlimit:4;stroke-dasharray:4.668, 4.668;stroke-dashoffset:5.77281809;stroke-opacity:1"
           id="path893"
           inkscape:connector-curvature="0" /></g><g
         id="g895"><path
           d="M 135.625,274.063 301.969,405.691"
           style="fill:none;stroke:#000000;stroke-width:1.55599999;stroke-linecap:butt;stroke-linejoin:miter;stroke-miterlimit:4;stroke-dasharray:4.668, 4.668;stroke-dashoffset:5.77281284;stroke-opacity:1"
           id="path897"
           inkscape:connector-curvature="0" /></g><g
         id="g899"><path
           d="M 548.695,374.43 295.832,407.508"
           style="fill:none;stroke:#000000;stroke-width:1.95004797;stroke-linecap:butt;stroke-linejoin:miter;stroke-miterlimit:4;stroke-dasharray:5.850146, 5.850146;stroke-dashoffset:3.41170406;stroke-opacity:1"
           id="path901"
           inkscape:connector-curvature="0" /></g><g
         id="g903"><path
           d="M 72.066,248.512 300.188,407.25"
           style="fill:none;stroke:#000000;stroke-width:0.83010203;stroke-linecap:butt;stroke-linejoin:miter;stroke-miterlimit:4;stroke-dasharray:none;stroke-opacity:1"
           id="path905"
           inkscape:connector-curvature="0" /></g><g
         id="g907"
         transform="matrix(1,0.695865,-0.695865,1,1.7325e-6,1.37225e-5)"><path
           d="m 171.88,133.648 2.726,-2.728 -9.539,2.727 9.54,2.725 z"
           style="fill:#000000;fill-opacity:1;fill-rule:evenodd;stroke:#000000;stroke-width:0.72679198;stroke-linecap:butt;stroke-linejoin:miter;stroke-miterlimit:4;stroke-dasharray:none;stroke-opacity:1"
           id="path909"
           inkscape:connector-curvature="0" /></g><g
         id="g911"
         transform="matrix(-1,-0.695865,0.695865,-1,-4.4425001e-6,1.2499981e-8)"><path
           d="m -386.372,-133.649 2.725,-2.724 -9.54,2.728 9.541,2.724 z"
           style="fill:#000000;fill-opacity:1;fill-rule:evenodd;stroke:#000000;stroke-width:0.72679198;stroke-linecap:butt;stroke-linejoin:miter;stroke-miterlimit:4;stroke-dasharray:none;stroke-opacity:1"
           id="path913"
           inkscape:connector-curvature="0" /></g><g
         id="g915"><path
           d="m 91.887,223.824 49.476,46.336"
           style="fill:none;stroke:#000000;stroke-width:1.03999996;stroke-linecap:butt;stroke-linejoin:miter;stroke-miterlimit:4;stroke-dasharray:none;stroke-opacity:1"
           id="path917"
           inkscape:connector-curvature="0" /></g><g
         id="g919"
         transform="matrix(1,0.936508,-0.936508,1,1.29e-6,-1.2100001e-6)"><path
           d="m 168.215,73.399 3.035,-3.037 -10.625,3.036 10.625,3.037 z"
           style="fill:#000000;fill-opacity:1;fill-rule:evenodd;stroke:#000000;stroke-width:0.80970103;stroke-linecap:butt;stroke-linejoin:miter;stroke-miterlimit:4;stroke-dasharray:none;stroke-opacity:1"
           id="path921"
           inkscape:connector-curvature="0" /></g><g
         id="g923"
         transform="matrix(-1,-0.936508,0.936508,-1,-2.876e-6,-1.396e-5)"><path
           d="m -202.509,-73.4 3.037,-3.035 -10.629,3.037 10.629,3.037 z"
           style="fill:#000000;fill-opacity:1;fill-rule:evenodd;stroke:#000000;stroke-width:0.80970103;stroke-linecap:butt;stroke-linejoin:miter;stroke-miterlimit:4;stroke-dasharray:none;stroke-opacity:1"
           id="path925"
           inkscape:connector-curvature="0" /></g><path
         d="m 244.316,360.34 c 12.157,-16.918 29.551,-27.305 48.243,-28.817 18.695,-1.511 37.117,5.981 51.093,20.79"
         style="fill:#ffffff;fill-opacity:0.68627499;fill-rule:nonzero;stroke:none"
         id="path927"
         inkscape:connector-curvature="0" /><g
         id="g929"
         transform="translate(-2.4681361e-6,2.468136e-6)"><path
           d="m 244.316,360.34 c 12.157,-16.918 29.551,-27.305 48.243,-28.817 18.695,-1.511 37.117,5.981 51.093,20.79"
           style="fill:none;stroke:#280b0b;stroke-width:1.22399998;stroke-linecap:butt;stroke-linejoin:miter;stroke-miterlimit:4;stroke-dasharray:none;stroke-opacity:1"
           id="path931"
           inkscape:connector-curvature="0" /></g><path
         d="m 251.457,350.402 -1.117,-6.836 -6.024,16.774 13.973,-11.059 z"
         style="fill:#ffffff;fill-opacity:0.68627499;fill-rule:evenodd;stroke:none"
         id="path933"
         inkscape:connector-curvature="0" /><g
         id="g935"
         transform="matrix(0.71866,-1,1,0.71866,-3.09e-6,4.9999926e-8)"><path
           d="m -111.898,331.874 3.978,-3.977 -13.915,3.977 13.914,3.974 z"
           style="fill:none;stroke:#280b0b;stroke-width:1.06021202;stroke-linecap:butt;stroke-linejoin:miter;stroke-miterlimit:4;stroke-dasharray:none;stroke-opacity:1"
           id="path937"
           inkscape:connector-curvature="0" /></g><path
         d="m 335.25,343.41 -6.922,-0.199 15.324,9.102 -8.203,-15.825 z"
         style="fill:#ffffff;fill-opacity:0.68627499;fill-rule:evenodd;stroke:none"
         id="path939"
         inkscape:connector-curvature="0" /><g
         id="g941"
         transform="matrix(-0.944238,-1,1,-0.944238,8.2899999e-7,-2.4070002e-6)"><path
           d="m -348.896,5.809 3.561,-3.559 -12.461,3.558 12.46,3.562 z"
           style="fill:none;stroke:#280b0b;stroke-width:0.94928598;stroke-linecap:butt;stroke-linejoin:miter;stroke-miterlimit:4;stroke-dasharray:none;stroke-opacity:1"
           id="path943"
           inkscape:connector-curvature="0" /></g><g
         id="g945"><path
           d="m 263.039,375.699 c 37.129,-21.871 82.547,-13.09 111.188,21.504"
           style="fill:#ffffff;fill-opacity:1;fill-rule:nonzero;stroke:#280b0b;stroke-width:1.22399998;stroke-linecap:butt;stroke-linejoin:miter;stroke-miterlimit:4;stroke-dasharray:none;stroke-opacity:1"
           id="path947"
           inkscape:connector-curvature="0" /></g><g
         id="g949"
         transform="matrix(1,-0.589126,0.589126,1,-1.400001e-7,3.2959998e-6)"><path
           d="m 41.507,393.937 4.219,-4.217 -14.766,4.218 14.765,4.218 z"
           style="fill:#ffffff;fill-opacity:1;fill-rule:evenodd;stroke:#280b0b;stroke-width:1.12490296;stroke-linecap:butt;stroke-linejoin:miter;stroke-miterlimit:4;stroke-dasharray:none;stroke-opacity:1"
           id="path951"
           inkscape:connector-curvature="0" /></g><g
         id="g953"
         transform="matrix(-0.827982,-1,1,-0.827982,-5.9309999e-6,-2.3889999e-6)"><path
           d="m -410.054,26.905 3.774,-3.77 -13.2,3.77 13.198,3.771 z"
           style="fill:#ffffff;fill-opacity:1;fill-rule:evenodd;stroke:#280b0b;stroke-width:1.00563097;stroke-linecap:butt;stroke-linejoin:miter;stroke-miterlimit:4;stroke-dasharray:none;stroke-opacity:1"
           id="path955"
           inkscape:connector-curvature="0" /></g><g
         id="g957"><path
           d="m 316.535,385.414 16.102,-21.101"
           style="fill:none;stroke:#000000;stroke-width:1.20000005;stroke-linecap:butt;stroke-linejoin:miter;stroke-miterlimit:4;stroke-dasharray:4.8, 4.8;stroke-dashoffset:0;stroke-opacity:1"
           id="path959"
           inkscape:connector-curvature="0" /></g><g
         id="g961"><path
           d="M 300.113,408.34 467.84,406.469"
           style="fill:none;stroke:#000000;stroke-width:1.22160006;stroke-linecap:butt;stroke-linejoin:miter;stroke-miterlimit:4;stroke-dasharray:none;stroke-opacity:1"
           id="path963"
           inkscape:connector-curvature="0" /></g><g
         id="g965"
         transform="matrix(1,-0.0111385,0.0111385,1,1.92675e-6,4.3675004e-7)"><path
           d="m 307.743,411.631 4.887,-4.887 -17.102,4.888 17.102,4.885 z"
           style="fill:#000000;fill-opacity:1;fill-rule:evenodd;stroke:#000000;stroke-width:1.30295897;stroke-linecap:butt;stroke-linejoin:miter;stroke-miterlimit:4;stroke-dasharray:none;stroke-opacity:1"
           id="path967"
           inkscape:connector-curvature="0" /></g><g
         id="g969"
         transform="matrix(-1,0.0111385,-0.0111385,-1,2.9792499e-6,2.4987503e-6)"><path
           d="m -451.04,-411.629 4.886,-4.887 -17.101,4.887 17.102,4.886 z"
           style="fill:#000000;fill-opacity:1;fill-rule:evenodd;stroke:#000000;stroke-width:1.30295897;stroke-linecap:butt;stroke-linejoin:miter;stroke-miterlimit:4;stroke-dasharray:none;stroke-opacity:1"
           id="path971"
           inkscape:connector-curvature="0" /></g><text
         transform="matrix(0.6923649,-0.80503946,0.70972095,0.61910508,0,0)"
         style="font-style:italic;font-variant:normal;font-size:32px;font-family:'Times New Roman';-inkscape-font-specification:TimesNewRomanPS-ItalicMT;writing-mode:lr-tb;fill:#000000;fill-opacity:1;fill-rule:nonzero;stroke:none;stroke-width:0.98467004"
         id="text975"
         x="-97.734581"
         y="273.33701"><tspan
           x="-97.734581"
           y="273.33701"
           id="tspan973"
           style="stroke-width:0.98467004">d</tspan></text>
<text
         transform="matrix(0.69236488,-0.80503947,0.70972097,0.61910506,0,0)"
         style="font-style:italic;font-variant:normal;font-size:22px;font-family:'Times New Roman';-inkscape-font-specification:TimesNewRomanPS-ItalicMT;writing-mode:lr-tb;fill:#000000;fill-opacity:1;fill-rule:nonzero;stroke:none;stroke-width:0.98467004"
         id="text979"
         x="-81.734596"
         y="273.33701"><tspan
           x="-81.734596 -73.176598"
           y="273.33701"
           sodipodi:role="line"
           id="tspan977"
           style="stroke-width:0.98467004">rm</tspan></text>
<g
         id="g981"><path
           d="m 81.078,291.008 79.965,51.09"
           style="fill:none;stroke:#000000;stroke-width:1.27999997;stroke-linecap:butt;stroke-linejoin:miter;stroke-miterlimit:4;stroke-dasharray:none;stroke-opacity:1"
           id="path983"
           inkscape:connector-curvature="0" /></g><g
         id="g985"
         transform="matrix(1,0.638889,-0.638889,1,-2.2365e-6,6.1750018e-7)"><path
           d="m 200.393,169.873 4.314,-4.314 -15.101,4.311 15.102,4.317 z"
           style="fill:#000000;fill-opacity:1;fill-rule:evenodd;stroke:#000000;stroke-width:1.15056098;stroke-linecap:butt;stroke-linejoin:miter;stroke-miterlimit:4;stroke-dasharray:none;stroke-opacity:1"
           id="path987"
           inkscape:connector-curvature="0" /></g><g
         id="g989"
         transform="matrix(-1,-0.638889,0.638889,-1,-1.0549995e-7,2.7785001e-6)"><path
           d="m -258.787,-169.871 4.314,-4.315 -15.099,4.315 15.1,4.314 z"
           style="fill:#000000;fill-opacity:1;fill-rule:evenodd;stroke:#000000;stroke-width:1.15056098;stroke-linecap:butt;stroke-linejoin:miter;stroke-miterlimit:4;stroke-dasharray:none;stroke-opacity:1"
           id="path991"
           inkscape:connector-curvature="0" /></g><path
         d="m 200.578,354.336 c 0.246,-1.285 0.356,-1.356 1.422,-1.356 h 1.965 c 2.351,0 4.101,0.903 4.101,3.61 0,1.765 -0.711,6.863 -6.203,6.863 h -3.09 z m 3.797,9.535 c 3.391,-0.937 6.043,-3.711 6.043,-6.695 0,-2.703 -2.16,-5.199 -5.961,-5.199 h -7.406 c -0.547,0 -0.793,0 -0.793,0.66 0,0.343 0.191,0.343 0.711,0.343 1.64,0 1.64,0.278 1.64,0.661 0,0.07 0,0.277 -0.109,0.797 l -3.691,18.656 c -0.246,1.211 -0.301,1.558 -2.188,1.558 -0.629,0 -0.82,0 -0.82,0.661 0,0.347 0.301,0.347 0.383,0.347 0.492,0 1.066,-0.07 1.586,-0.07 h 3.226 c 0.492,0 1.067,0.07 1.559,0.07 0.218,0 0.519,0 0.519,-0.66 0,-0.348 -0.246,-0.348 -0.656,-0.348 -1.668,0 -1.668,-0.277 -1.668,-0.625 0,-0.035 0,-0.277 0.055,-0.554 l 1.832,-9.325 h 3.281 c 2.594,0 3.086,2.079 3.086,3.223 0,0.52 -0.274,1.871 -0.465,2.774 -0.301,1.593 -0.383,1.976 -0.383,2.636 0,2.461 1.586,3.606 3.418,3.606 2.215,0 3.172,-3.434 3.172,-3.918 0,-0.242 -0.137,-0.348 -0.301,-0.348 -0.218,0 -0.273,0.207 -0.328,0.484 -0.656,2.465 -1.777,3.086 -2.461,3.086 -0.683,0 -1.121,-0.378 -1.121,-1.941 0,-0.832 0.328,-3.984 0.356,-4.16 0.136,-1.281 0.136,-1.422 0.136,-1.699 0,-2.532 -1.613,-3.606 -2.652,-4.02 z"
         style="fill:#000000;fill-opacity:1;fill-rule:nonzero;stroke:none"
         id="path993"
         inkscape:connector-curvature="0" /><path
         d="m 214.332,377.668 c 0.199,-0.992 0.398,-1.988 0.582,-3.004 0.02,-0.047 0.145,-0.715 0.164,-0.832 0.055,-0.207 0.512,-1.156 0.985,-1.734 0.582,-0.668 1.203,-0.785 1.531,-0.785 0.199,0 0.527,0.023 0.785,0.3 -0.785,0.207 -0.895,1.063 -0.895,1.27 0,0.512 0.309,0.855 0.711,0.855 0.493,0 1.039,-0.508 1.039,-1.433 0,-0.832 -0.566,-1.641 -1.605,-1.641 -1.238,0 -2.078,1.043 -2.461,1.664 -0.363,-1.664 -1.602,-1.664 -1.785,-1.664 -0.656,0 -1.11,0.531 -1.403,1.25 -0.417,1.039 -0.621,2.219 -0.621,2.289 0,0.207 0.129,0.301 0.274,0.301 0.238,0 0.258,-0.094 0.383,-0.695 0.218,-1.133 0.547,-2.496 1.312,-2.496 0.477,0 0.586,0.578 0.586,1.085 0,0.418 -0.094,0.856 -0.238,1.618 -0.035,0.187 -0.309,1.55 -0.383,1.875 l -0.676,3.464 c -0.07,0.348 -0.179,0.926 -0.179,1.02 0,0.531 0.343,0.715 0.582,0.715 0.636,0 0.765,-0.649 0.91,-1.434 z"
         style="fill:#000000;fill-opacity:1;fill-rule:nonzero;stroke:none"
         id="path995"
         inkscape:connector-curvature="0" /><path
         d="m 229.133,374.664 c 0,-2.266 -1.278,-4 -3.172,-4 -2.586,0 -5.102,3.191 -5.102,6.426 0,2.359 1.313,4 3.172,4 2.606,0 5.102,-3.235 5.102,-6.426 z m -5.086,5.777 c -0.637,0 -1.711,-0.414 -1.711,-2.539 0,-0.949 0.344,-3.445 1.219,-4.879 0.894,-1.457 1.894,-1.71 2.386,-1.71 0.75,0 1.715,0.578 1.715,2.519 0,0.926 -0.328,3.121 -1.019,4.508 -0.676,1.316 -1.676,2.101 -2.59,2.101 z"
         style="fill:#000000;fill-opacity:1;fill-rule:nonzero;stroke:none"
         id="path997"
         inkscape:connector-curvature="0" /><path
         d="m 288.324,314.52 c 0,-2.75 -1.422,-5.336 -4.168,-5.336 -3.394,0 -6.789,4.058 -6.789,8.089 0,2.469 1.399,4.711 4.043,4.711 1.606,0 3.524,-0.683 5.36,-2.386 0.363,1.59 1.168,2.386 2.281,2.386 1.398,0 2.097,-1.589 2.097,-1.961 0,-0.253 -0.179,-0.253 -0.257,-0.253 -0.207,0 -0.235,0.085 -0.313,0.312 -0.23,0.711 -0.828,1.332 -1.449,1.332 -0.805,0 -0.805,-1.816 -0.805,-3.547 2.645,-3.461 3.266,-7.035 3.266,-7.062 0,-0.258 -0.207,-0.258 -0.285,-0.258 -0.235,0 -0.258,0.086 -0.364,0.598 -0.336,1.246 -1.007,3.46 -2.617,5.789 z m -1.629,4.398 c -2.281,2.242 -4.328,2.496 -5.234,2.496 -1.84,0 -2.356,-1.785 -2.356,-3.121 0,-1.219 0.567,-4.113 1.372,-5.676 1.062,-1.984 2.511,-2.863 3.679,-2.863 2.512,0 2.512,3.601 2.512,5.988 0,0.707 -0.027,1.446 -0.027,2.156 0,0.567 0.027,0.707 0.054,1.02 z"
         style="fill:#000000;fill-opacity:1;fill-rule:nonzero;stroke:none"
         id="path999"
         inkscape:connector-curvature="0" /><path
         d="m 295.738,323.344 c 0.192,-0.813 0.379,-1.625 0.551,-2.457 0.02,-0.039 0.141,-0.586 0.156,-0.684 0.051,-0.168 0.485,-0.945 0.934,-1.418 0.551,-0.547 1.141,-0.64 1.449,-0.64 0.192,0 0.5,0.015 0.742,0.246 -0.742,0.168 -0.843,0.867 -0.843,1.039 0,0.414 0.293,0.699 0.671,0.699 0.469,0 0.985,-0.414 0.985,-1.172 0,-0.684 -0.535,-1.344 -1.52,-1.344 -1.175,0 -1.968,0.852 -2.332,1.364 -0.343,-1.364 -1.519,-1.364 -1.691,-1.364 -0.621,0 -1.055,0.434 -1.328,1.02 -0.399,0.851 -0.59,1.816 -0.59,1.875 0,0.168 0.121,0.246 0.262,0.246 0.222,0 0.238,-0.078 0.359,-0.566 0.207,-0.93 0.52,-2.043 1.246,-2.043 0.449,0 0.551,0.472 0.551,0.886 0,0.34 -0.086,0.699 -0.223,1.324 -0.035,0.153 -0.293,1.27 -0.363,1.532 l -0.641,2.84 c -0.066,0.281 -0.172,0.757 -0.172,0.832 0,0.433 0.329,0.586 0.555,0.586 0.602,0 0.723,-0.532 0.863,-1.172 z"
         style="fill:#000000;fill-opacity:1;fill-rule:nonzero;stroke:none"
         id="path1001"
         inkscape:connector-curvature="0" /><path
         d="m 304.617,322.852 c 0.051,-0.282 0.227,-1 0.278,-1.286 0.05,-0.187 0.156,-0.644 0.187,-0.832 0.035,-0.093 0.606,-1.324 1.367,-1.949 0.586,-0.492 1.156,-0.64 1.641,-0.64 0.637,0 0.984,0.414 0.984,1.285 0,0.453 -0.105,0.886 -0.293,1.738 -0.121,0.492 -0.418,1.762 -0.519,2.273 l -0.258,1.133 c -0.086,0.321 -0.207,0.891 -0.207,0.985 0,0.433 0.328,0.586 0.551,0.586 0.312,0 0.57,-0.227 0.691,-0.454 0.051,-0.113 0.191,-0.757 0.277,-1.156 l 0.395,-1.683 c 0.055,-0.282 0.227,-1 0.277,-1.286 0.242,-1.019 0.242,-1.039 0.641,-1.664 0.57,-0.925 1.379,-1.757 2.539,-1.757 0.621,0 0.984,0.394 0.984,1.285 0,1.039 -0.726,3.215 -1.054,4.125 -0.172,0.492 -0.227,0.621 -0.227,0.98 0,1.078 0.813,1.61 1.555,1.61 1.695,0 2.402,-2.649 2.402,-2.895 0,-0.187 -0.14,-0.246 -0.262,-0.246 -0.207,0 -0.238,0.133 -0.293,0.32 -0.414,1.571 -1.136,2.289 -1.793,2.289 -0.277,0 -0.417,-0.187 -0.417,-0.621 0,-0.437 0.14,-0.851 0.312,-1.324 0.258,-0.719 1.02,-2.895 1.02,-3.953 0,-1.422 -0.899,-2.102 -2.141,-2.102 -1.191,0 -2.176,0.68 -2.953,1.856 -0.141,-1.516 -1.246,-1.856 -2.145,-1.856 -0.793,0 -1.847,0.301 -2.797,1.664 -0.121,-1.132 -0.949,-1.664 -1.761,-1.664 -0.602,0 -1.035,0.399 -1.328,1.039 -0.415,0.891 -0.586,1.817 -0.586,1.856 0,0.168 0.117,0.246 0.257,0.246 0.223,0 0.243,-0.078 0.364,-0.566 0.207,-0.93 0.515,-2.043 1.242,-2.043 0.449,0 0.551,0.472 0.551,0.886 0,0.34 -0.086,0.699 -0.223,1.324 -0.035,0.153 -0.293,1.27 -0.363,1.532 l -0.637,2.84 c -0.07,0.281 -0.176,0.757 -0.176,0.832 0,0.433 0.328,0.586 0.555,0.586 0.309,0 0.57,-0.227 0.691,-0.454 0.051,-0.113 0.188,-0.757 0.274,-1.156 z"
         style="fill:#000000;fill-opacity:1;fill-rule:nonzero;stroke:none"
         id="path1003"
         inkscape:connector-curvature="0" /><path
         d="m 362.953,365.707 c 0,-2.656 -1.226,-5.148 -3.59,-5.148 -2.918,0 -5.84,3.914 -5.84,7.804 0,2.383 1.204,4.547 3.477,4.547 1.383,0 3.031,-0.66 4.613,-2.301 0.313,1.532 1.004,2.301 1.961,2.301 1.203,0 1.809,-1.535 1.809,-1.89 0,-0.247 -0.156,-0.247 -0.227,-0.247 -0.176,0 -0.199,0.082 -0.265,0.301 -0.2,0.684 -0.715,1.285 -1.25,1.285 -0.688,0 -0.688,-1.75 -0.688,-3.421 2.274,-3.34 2.809,-6.793 2.809,-6.821 0,-0.246 -0.18,-0.246 -0.246,-0.246 -0.203,0 -0.223,0.082 -0.313,0.574 -0.289,1.207 -0.871,3.344 -2.25,5.59 z m -1.406,4.242 c -1.961,2.164 -3.723,2.41 -4.5,2.41 -1.582,0 -2.031,-1.722 -2.031,-3.011 0,-1.176 0.492,-3.969 1.183,-5.477 0.914,-1.918 2.16,-2.766 3.164,-2.766 2.16,0 2.16,3.477 2.16,5.778 0,0.683 -0.019,1.398 -0.019,2.082 0,0.547 0.019,0.683 0.043,0.984 z"
         style="fill:#000000;fill-opacity:1;fill-rule:nonzero;stroke:none"
         id="path1005"
         inkscape:connector-curvature="0" /><path
         d="m 369.328,374.223 c 0.164,-0.785 0.328,-1.571 0.477,-2.375 0.015,-0.035 0.117,-0.563 0.133,-0.657 0.046,-0.164 0.417,-0.91 0.804,-1.367 0.473,-0.531 0.981,-0.621 1.246,-0.621 0.164,0 0.43,0.016 0.641,0.238 -0.641,0.164 -0.731,0.84 -0.731,1.004 0,0.399 0.254,0.676 0.582,0.676 0.399,0 0.844,-0.402 0.844,-1.133 0,-0.66 -0.461,-1.297 -1.304,-1.297 -1.012,0 -1.696,0.821 -2.008,1.313 -0.297,-1.313 -1.309,-1.313 -1.457,-1.313 -0.535,0 -0.907,0.418 -1.145,0.985 -0.34,0.824 -0.504,1.754 -0.504,1.808 0,0.164 0.106,0.239 0.223,0.239 0.195,0 0.207,-0.075 0.312,-0.547 0.18,-0.895 0.446,-1.973 1.071,-1.973 0.386,0 0.476,0.457 0.476,0.856 0,0.332 -0.074,0.675 -0.195,1.281 -0.027,0.144 -0.25,1.223 -0.313,1.476 l -0.546,2.739 c -0.063,0.273 -0.149,0.73 -0.149,0.804 0,0.418 0.281,0.567 0.473,0.567 0.519,0 0.625,-0.512 0.742,-1.133 z"
         style="fill:#000000;fill-opacity:1;fill-rule:nonzero;stroke:none"
         id="path1007"
         inkscape:connector-curvature="0" /><path
         d="m 374.77,378.953 c -0.118,0.582 -0.149,0.731 -0.743,0.731 -0.207,0 -0.386,0 -0.386,0.343 0,0.164 0.132,0.258 0.207,0.258 0.148,0 0.207,-0.055 1.308,-0.055 1.071,0 1.383,0.055 1.485,0.055 0.058,0 0.285,0 0.285,-0.347 0,-0.254 -0.211,-0.254 -0.387,-0.254 -0.715,0 -0.715,-0.11 -0.715,-0.278 0,-0.125 0.27,-1.422 0.715,-3.558 0.191,0.422 0.652,1.078 1.453,1.078 1.828,0 3.731,-2.594 3.731,-5.242 0,-1.805 -0.95,-2.993 -2.141,-2.993 -0.891,0 -1.602,0.75 -2.035,1.297 -0.313,-1.297 -1.305,-1.297 -1.453,-1.297 -0.535,0 -0.906,0.418 -1.145,0.985 -0.344,0.824 -0.508,1.754 -0.508,1.808 0,0.164 0.106,0.239 0.223,0.239 0.195,0 0.211,-0.075 0.313,-0.547 0.195,-0.934 0.461,-1.973 1.07,-1.973 0.371,0 0.476,0.418 0.476,0.856 0,0.183 -0.058,0.621 -0.089,0.769 z m 2.734,-7.832 c 0.074,-0.312 0.074,-0.348 0.297,-0.676 0.566,-0.824 1.203,-1.242 1.738,-1.242 0.742,0 1.024,0.895 1.024,1.715 0,0.676 -0.325,2.629 -0.77,3.707 -0.387,0.984 -1.102,1.789 -1.801,1.789 -1.008,0 -1.246,-1.426 -1.246,-1.551 0,-0.039 0.031,-0.238 0.043,-0.293 z"
         style="fill:#000000;fill-opacity:1;fill-rule:nonzero;stroke:none"
         id="path1009"
         inkscape:connector-curvature="0" /><path
         d="m 392.027,422.613 c 0.27,-1.23 0.387,-1.297 1.539,-1.297 h 2.129 c 2.543,0 4.434,0.864 4.434,3.465 0,1.703 -0.766,6.606 -6.711,6.606 h -3.34 z m 4.114,9.172 c 3.664,-0.898 6.531,-3.566 6.531,-6.433 0,-2.602 -2.336,-5.004 -6.445,-5.004 h -8.012 c -0.59,0 -0.86,0 -0.86,0.632 0,0.336 0.208,0.336 0.77,0.336 1.773,0 1.773,0.266 1.773,0.633 0,0.067 0,0.266 -0.117,0.766 l -3.992,17.941 c -0.266,1.168 -0.324,1.504 -2.363,1.504 -0.68,0 -0.887,0 -0.887,0.633 0,0.332 0.324,0.332 0.414,0.332 0.531,0 1.152,-0.066 1.715,-0.066 h 3.488 c 0.532,0 1.153,0.066 1.684,0.066 0.238,0 0.562,0 0.562,-0.633 0,-0.332 -0.265,-0.332 -0.711,-0.332 -1.8,0 -1.8,-0.269 -1.8,-0.601 0,-0.036 0,-0.266 0.058,-0.536 l 1.981,-8.968 h 3.547 c 2.808,0 3.343,2 3.343,3.101 0,0.5 -0.297,1.801 -0.504,2.668 -0.324,1.531 -0.414,1.899 -0.414,2.531 0,2.372 1.715,3.469 3.696,3.469 2.394,0 3.429,-3.301 3.429,-3.765 0,-0.235 -0.148,-0.336 -0.324,-0.336 -0.238,0 -0.297,0.203 -0.355,0.468 -0.711,2.368 -1.922,2.969 -2.66,2.969 -0.739,0 -1.211,-0.367 -1.211,-1.867 0,-0.801 0.351,-3.836 0.382,-4.004 0.149,-1.234 0.149,-1.367 0.149,-1.633 0,-2.437 -1.746,-3.468 -2.867,-3.871 z"
         style="fill:#000000;fill-opacity:1;fill-rule:nonzero;stroke:none"
         id="path1011"
         inkscape:connector-curvature="0" /><path
         d="m 406.906,445.059 c 0.219,-0.954 0.434,-1.911 0.633,-2.891 0.02,-0.043 0.156,-0.688 0.176,-0.801 0.058,-0.199 0.551,-1.109 1.062,-1.664 0.633,-0.644 1.305,-0.758 1.657,-0.758 0.218,0 0.574,0.024 0.847,0.289 -0.847,0.2 -0.965,1.024 -0.965,1.223 0,0.488 0.336,0.824 0.77,0.824 0.531,0 1.121,-0.492 1.121,-1.379 0,-0.8 -0.609,-1.578 -1.734,-1.578 -1.34,0 -2.246,1 -2.66,1.602 -0.395,-1.602 -1.735,-1.602 -1.93,-1.602 -0.711,0 -1.203,0.512 -1.52,1.199 -0.453,1 -0.668,2.133 -0.668,2.204 0,0.199 0.137,0.289 0.293,0.289 0.258,0 0.278,-0.09 0.414,-0.668 0.239,-1.09 0.594,-2.403 1.422,-2.403 0.512,0 0.629,0.555 0.629,1.047 0,0.399 -0.098,0.821 -0.258,1.555 -0.039,0.18 -0.332,1.488 -0.414,1.801 l -0.726,3.336 c -0.078,0.332 -0.2,0.886 -0.2,0.976 0,0.512 0.375,0.692 0.633,0.692 0.688,0 0.828,-0.625 0.985,-1.379 z"
         style="fill:#000000;fill-opacity:1;fill-rule:nonzero;stroke:none"
         id="path1013"
         inkscape:connector-curvature="0" /><path
         d="m 418.973,434.254 c 0,-0.488 -0.313,-0.844 -0.77,-0.844 -0.512,0 -1.082,0.531 -1.082,1.199 0,0.489 0.317,0.844 0.77,0.844 0.511,0 1.082,-0.531 1.082,-1.199 z m -2.875,8.16 -1.067,3.066 c -0.097,0.336 -0.195,0.602 -0.195,0.981 0,1.09 0.746,1.891 1.793,1.891 1.91,0 2.719,-3.114 2.719,-3.403 0,-0.222 -0.157,-0.289 -0.297,-0.289 -0.235,0 -0.274,0.156 -0.332,0.379 -0.453,1.777 -1.262,2.688 -2.051,2.688 -0.238,0 -0.473,-0.11 -0.473,-0.711 0,-0.532 0.137,-0.934 0.395,-1.621 0.195,-0.602 0.394,-1.204 0.609,-1.801 l 0.614,-1.801 c 0.175,-0.512 0.41,-1.203 0.41,-1.578 0,-1.113 -0.785,-1.891 -1.793,-1.891 -1.91,0 -2.739,3.114 -2.739,3.403 0,0.199 0.137,0.289 0.297,0.289 0.254,0 0.274,-0.137 0.332,-0.36 0.555,-2.109 1.461,-2.711 2.051,-2.711 0.277,0 0.473,0.114 0.473,0.735 0,0.222 -0.02,0.535 -0.215,1.199 z"
         style="fill:#000000;fill-opacity:1;fill-rule:nonzero;stroke:none"
         id="path1015"
         inkscape:connector-curvature="0" /><text
         transform="matrix(0.6923649,-0.80503946,0.70972095,0.61910508,0,0)"
         style="font-style:italic;font-variant:normal;font-size:32px;font-family:'Times New Roman';-inkscape-font-specification:TimesNewRomanPS-ItalicMT;writing-mode:lr-tb;fill:#000000;fill-opacity:1;fill-rule:nonzero;stroke:none;stroke-width:0.98467004"
         id="text1019"
         x="-189.73445"
         y="321.3913"><tspan
           x="-189.73445"
           y="321.3913"
           id="tspan1017"
           style="stroke-width:0.98467004">d</tspan></text>
<text
         transform="matrix(0.69236488,-0.80503947,0.70972097,0.61910506,0,0)"
         style="font-style:italic;font-variant:normal;font-size:22px;font-family:'Times New Roman';-inkscape-font-specification:TimesNewRomanPS-ItalicMT;writing-mode:lr-tb;fill:#000000;fill-opacity:1;fill-rule:nonzero;stroke:none;stroke-width:0.98467004"
         id="text1023"
         x="-173.73445"
         y="321.3913"><tspan
           x="-173.73445 -165.17647"
           y="321.3913"
           sodipodi:role="line"
           id="tspan1021"
           style="stroke-width:0.98467004">ri</tspan></text>
<g
         id="g1025"><path
           d="m 175.262,162.09 33.32,55.183"
           style="fill:none;stroke:#000000;stroke-width:2.168504;stroke-linecap:butt;stroke-linejoin:miter;stroke-miterlimit:4;stroke-dasharray:none;stroke-opacity:1"
           id="path1027"
           inkscape:connector-curvature="0" /></g><g
         id="g1029"><path
           d="m 204.539,149.473 28.113,58.308"
           style="fill:none;stroke:#000000;stroke-width:2.168504;stroke-linecap:butt;stroke-linejoin:miter;stroke-miterlimit:4;stroke-dasharray:none;stroke-opacity:1"
           id="path1031"
           inkscape:connector-curvature="0" /></g><g
         id="g1033"><path
           d="m 319.906,198.41 10.41,-64.558"
           style="fill:none;stroke:#000000;stroke-width:2.45196891;stroke-linecap:butt;stroke-linejoin:miter;stroke-miterlimit:4;stroke-dasharray:none;stroke-opacity:1"
           id="path1035"
           inkscape:connector-curvature="0" /></g><g
         id="g1037"><path
           d="m 344.895,201.535 16.66,-61.433"
           style="fill:none;stroke:#000000;stroke-width:2.45196891;stroke-linecap:butt;stroke-linejoin:miter;stroke-miterlimit:4;stroke-dasharray:none;stroke-opacity:1"
           id="path1039"
           inkscape:connector-curvature="0" /></g><path
         d="m 135.359,111.988 h 61.434 v 24.988 h -61.434 z"
         style="fill:#ffffff;fill-opacity:1;fill-rule:nonzero;stroke:none"
         id="path1041"
         inkscape:connector-curvature="0" /><path
         d="m 431.07,511.82 h 84.34 v 67.68 h -84.34 z"
         style="fill:#ffffff;fill-opacity:1;fill-rule:nonzero;stroke:none"
         id="path1043"
         inkscape:connector-curvature="0" /><path
         d="m 201.527,126.734 1.703,34.321 -24.957,1.238 -1.703,-34.32 z"
         style="fill:#ffffff;fill-opacity:1;fill-rule:nonzero;stroke:none"
         id="path1045"
         inkscape:connector-curvature="0" /><path
         d="m 357.133,108.574 1.703,34.321 -24.957,1.238 -1.703,-34.32 z"
         style="fill:#ffffff;fill-opacity:1;fill-rule:nonzero;stroke:none"
         id="path1047"
         inkscape:connector-curvature="0" /><path
         d="m 231.488,208.23 1.438,34.317 -21.059,1.238 -1.437,-34.316 z"
         style="fill:#ffffff;fill-opacity:1;fill-rule:nonzero;stroke:none"
         id="path1049"
         inkscape:connector-curvature="0" /><path
         d="m 317.664,228.984 5.055,-33.859 21.261,4.258 -5.058,33.859 z"
         style="fill:#ffffff;fill-opacity:1;fill-rule:nonzero;stroke:none"
         id="path1051"
         inkscape:connector-curvature="0" /><path
         d="m 200.957,174.98 c 0,12.942 -0.465,23.43 -1.039,23.43 -0.578,0 -1.043,-10.488 -1.043,-23.43 0,-12.937 0.465,-23.425 1.043,-23.425 0.574,0 1.039,10.488 1.039,23.425 z"
         style="fill:#ffffff;fill-opacity:1;fill-rule:nonzero;stroke:none"
         id="path1053"
         inkscape:connector-curvature="0" /><g
         id="g1055"><path
           d="m 188.285,188.664 c 9.68,-5.699 20.324,-9.863 31.488,-12.32"
           style="fill:#ffffff;fill-opacity:1;fill-rule:nonzero;stroke:#000000;stroke-width:2.55118108;stroke-linecap:butt;stroke-linejoin:miter;stroke-miterlimit:4;stroke-dasharray:none;stroke-opacity:1"
           id="path1057"
           inkscape:connector-curvature="0" /></g><g
         id="g1059"><path
           d="m 325.594,162.922 c 10.16,1.269 20.195,3.277 30.011,6"
           style="fill:#ffffff;fill-opacity:1;fill-rule:nonzero;stroke:#000000;stroke-width:2.75054312;stroke-linecap:butt;stroke-linejoin:miter;stroke-miterlimit:4;stroke-dasharray:none;stroke-opacity:1"
           id="path1061"
           inkscape:connector-curvature="0" /></g><g
         id="g1063"><path
           d="m 466.473,184.875 36.441,28.113"
           style="fill:none;stroke:#000000;stroke-width:1.60157502;stroke-linecap:butt;stroke-linejoin:miter;stroke-miterlimit:4;stroke-dasharray:4.804725, 4.804725;stroke-dashoffset:0;stroke-opacity:1"
           id="path1065"
           inkscape:connector-curvature="0" /></g><g
         id="g1067"><path
           d="m 440.441,236.934 14.575,-17.7"
           style="fill:none;stroke:#000000;stroke-width:1.31810999;stroke-linecap:butt;stroke-linejoin:miter;stroke-miterlimit:4;stroke-dasharray:none;stroke-opacity:1"
           id="path1069"
           inkscape:connector-curvature="0" /></g><g
         id="g1071"
         transform="matrix(-0.823529,1,-1,-0.823529,-1.0975e-5,4.9380001e-6)"><path
           d="m -82.474,-378.717 4.07,-4.07 -14.245,4.071 14.245,4.069 z"
           style="fill:#000000;fill-opacity:1;fill-rule:evenodd;stroke:#000000;stroke-width:1.08532202;stroke-linecap:butt;stroke-linejoin:miter;stroke-miterlimit:4;stroke-dasharray:none;stroke-opacity:1"
           id="path1073"
           inkscape:connector-curvature="0" /></g><g
         id="g1075"><path
           d="m 476.883,191.121 16.66,-19.785"
           style="fill:none;stroke:#000000;stroke-width:1.31810999;stroke-linecap:butt;stroke-linejoin:miter;stroke-miterlimit:4;stroke-dasharray:none;stroke-opacity:1"
           id="path1077"
           inkscape:connector-curvature="0" /></g><g
         id="g1079"
         transform="matrix(0.842105,-1,1,0.842105,-4.9924999e-6,-1.06925e-5)"><path
           d="m 133.224,373.187 4.033,-4.033 -14.117,4.032 14.117,4.034 z"
           style="fill:#000000;fill-opacity:1;fill-rule:evenodd;stroke:#000000;stroke-width:1.07545304;stroke-linecap:butt;stroke-linejoin:miter;stroke-miterlimit:4;stroke-dasharray:none;stroke-opacity:1"
           id="path1081"
           inkscape:connector-curvature="0" /></g><text
         style="font-style:italic;font-variant:normal;font-size:32px;font-family:'Times New Roman';-inkscape-font-specification:TimesNewRomanPS-ItalicMT;writing-mode:lr-tb;fill:#000000;fill-opacity:1;fill-rule:nonzero;stroke:none"
         id="text1085"
         x="461.63602"
         y="220.2394"><tspan
           x="461.63602"
           y="220.2394"
           id="tspan1083">L</tspan></text>
<text
         style="font-style:italic;font-variant:normal;font-size:24px;font-family:'Times New Roman';-inkscape-font-specification:TimesNewRomanPS-ItalicMT;writing-mode:lr-tb;fill:#000000;fill-opacity:1;fill-rule:nonzero;stroke:none"
         id="text1089"
         x="479.44852"
         y="220.2394"><tspan
           x="479.44852"
           y="220.2394"
           id="tspan1087">r</tspan></text>
<g
         id="g1091"><path
           d="m 186.379,156.762 c 18.742,-6.25 18.742,-6.25 18.742,-6.25"
           style="fill:none;stroke:#000000;stroke-width:1.31810999;stroke-linecap:butt;stroke-linejoin:miter;stroke-miterlimit:4;stroke-dasharray:5.272441, 5.272441;stroke-dashoffset:0;stroke-opacity:1"
           id="path1093"
           inkscape:connector-curvature="0" /></g><g
         id="g1095"><path
           d="m 183.258,125.523 c 12.492,26.032 12.492,26.032 12.492,26.032"
           style="fill:none;stroke:#000000;stroke-width:1.31810999;stroke-linecap:butt;stroke-linejoin:miter;stroke-miterlimit:4;stroke-dasharray:none;stroke-opacity:1"
           id="path1097"
           inkscape:connector-curvature="0" /></g><g
         id="g1099"
         transform="matrix(-0.48,-1,1,-0.48,0,0)"><path
           d="m -187.658,99.971 4.754,-4.753 -16.637,4.752 16.636,4.755 z"
           style="fill:#000000;fill-opacity:1;fill-rule:evenodd;stroke:#000000;stroke-width:1.26752698;stroke-linecap:butt;stroke-linejoin:miter;stroke-miterlimit:4;stroke-dasharray:none;stroke-opacity:1"
           id="path1101"
           inkscape:connector-curvature="0" /></g><g
         id="g1103"><path
           d="m 209.289,179.668 14.574,28.113"
           style="fill:none;stroke:#000000;stroke-width:1.31810999;stroke-linecap:butt;stroke-linejoin:miter;stroke-miterlimit:4;stroke-dasharray:none;stroke-opacity:1"
           id="path1105"
           inkscape:connector-curvature="0" /></g><g
         id="g1107"
         transform="matrix(0.518519,1,-1,0.518519,6.8735e-6,2.2324999e-6)"><path
           d="m 238.823,-91.521 4.68,-4.679 -16.38,4.679 16.382,4.681 z"
           style="fill:#000000;fill-opacity:1;fill-rule:evenodd;stroke:#000000;stroke-width:1.24816895;stroke-linecap:butt;stroke-linejoin:miter;stroke-miterlimit:4;stroke-dasharray:none;stroke-opacity:1"
           id="path1109"
           inkscape:connector-curvature="0" /></g><text
         transform="scale(0.88314054,1.1323226)"
         style="font-style:italic;font-variant:normal;font-size:35.20460892px;font-family:'Times New Roman';-inkscape-font-specification:TimesNewRomanPS-ItalicMT;writing-mode:lr-tb;fill:#000000;fill-opacity:1;fill-rule:nonzero;stroke:none;stroke-width:0.88314056"
         id="text1113"
         x="219.2619"
         y="111.77445"><tspan
           x="219.2619"
           y="111.77445"
           id="tspan1111"
           style="stroke-width:0.88314056">M</tspan></text>
<text
         transform="scale(0.88314055,1.1323226)"
         style="font-style:italic;font-variant:normal;font-size:24.20316887px;font-family:'Times New Roman';-inkscape-font-specification:TimesNewRomanPS-ItalicMT;writing-mode:lr-tb;fill:#000000;fill-opacity:1;fill-rule:nonzero;stroke:none;stroke-width:0.88314056"
         id="text1117"
         x="248.62201"
         y="111.77447"><tspan
           x="248.62201"
           y="111.77447"
           id="tspan1115"
           style="stroke-width:0.88314056">r</tspan></text>
<path
         style="fill:none;stroke:#999999;stroke-width:0.93638617;stroke-linecap:butt;stroke-linejoin:miter;stroke-miterlimit:4;stroke-dasharray:none;stroke-opacity:1;marker-start:url(#Arrow1Lstart);marker-end:url(#Arrow1Lend)"
         d="m 300.17043,344.44142 -0.85747,63.51706 56.59332,0.8946"
         id="path1119"
         inkscape:connector-curvature="0" /><text
         xml:space="preserve"
         style="font-style:normal;font-variant:normal;font-weight:normal;font-stretch:normal;font-size:18px;line-height:1.25;font-family:'Times New Roman';-inkscape-font-specification:'Times New Roman, ';letter-spacing:0px;word-spacing:0px;fill:#000000;fill-opacity:1;stroke:none;stroke-width:0.75"
         x="275.64639"
         y="417.96066"
         id="text3963"><tspan
           sodipodi:role="line"
           id="tspan3961"
           x="275.64639"
           y="417.96066"
           style="font-size:24px;line-height:4.25;stroke-width:0.75">O</tspan></text>
<text
         xml:space="preserve"
         style="font-style:normal;font-variant:normal;font-weight:normal;font-stretch:normal;font-size:18px;line-height:1.25;font-family:'Times New Roman';-inkscape-font-specification:'Times New Roman, ';letter-spacing:0px;word-spacing:0px;fill:#b3b3b3;fill-opacity:1;stroke:#b3b3b3;stroke-width:0.75;"
         x="347.54169"
         y="420.94485"
         id="text4627"><tspan
           sodipodi:role="line"
           id="tspan4625"
           x="347.54169"
           y="420.94485"
           style="stroke-width:0.75;fill:#b3b3b3;stroke:#b3b3b3;">x</tspan></text>
<text
         xml:space="preserve"
         style="font-style:normal;font-variant:normal;font-weight:normal;font-stretch:normal;font-size:18px;line-height:1.25;font-family:'Times New Roman';-inkscape-font-specification:'Times New Roman, ';letter-spacing:0px;word-spacing:0px;fill:#b3b3b3;fill-opacity:1;stroke:#b3b3b3;stroke-width:0.75;"
         x="305.71906"
         y="351.61255"
         id="text4631"><tspan
           sodipodi:role="line"
           id="tspan4629"
           x="305.71906"
           y="351.61255"
           style="stroke:#b3b3b3;stroke-width:0.75;fill:#b3b3b3;">y</tspan></text>
</g></g></svg>